<mxfile host="app.diagrams.net" agent="Mozilla/5.0 (Macintosh; Intel Mac OS X 10_15_7) AppleWebKit/537.36 (KHTML, like Gecko) Chrome/130.0.0.0 Safari/537.36" version="24.8.4">
  <diagram name="第 1 页" id="wWkPU8nSdmU5xyD1abTf">
    <mxGraphModel dx="954" dy="581" grid="1" gridSize="10" guides="1" tooltips="1" connect="1" arrows="1" fold="1" page="1" pageScale="1" pageWidth="10000" pageHeight="10000" math="0" shadow="0">
      <root>
        <mxCell id="0" />
        <mxCell id="1" parent="0" />
        <mxCell id="sZw8WR6yCNCQQHxr075C-3" value="" style="edgeStyle=orthogonalEdgeStyle;rounded=0;orthogonalLoop=1;jettySize=auto;html=1;" edge="1" parent="1" source="sZw8WR6yCNCQQHxr075C-1" target="sZw8WR6yCNCQQHxr075C-2">
          <mxGeometry relative="1" as="geometry" />
        </mxCell>
        <mxCell id="sZw8WR6yCNCQQHxr075C-1" value="创作（新建任务）" style="rounded=1;whiteSpace=wrap;html=1;" vertex="1" parent="1">
          <mxGeometry x="240" y="160" width="120" height="60" as="geometry" />
        </mxCell>
        <mxCell id="sZw8WR6yCNCQQHxr075C-10" value="" style="edgeStyle=orthogonalEdgeStyle;rounded=0;orthogonalLoop=1;jettySize=auto;html=1;" edge="1" parent="1" source="sZw8WR6yCNCQQHxr075C-2" target="sZw8WR6yCNCQQHxr075C-9">
          <mxGeometry relative="1" as="geometry" />
        </mxCell>
        <mxCell id="sZw8WR6yCNCQQHxr075C-2" value="选择参考数据" style="whiteSpace=wrap;html=1;rounded=1;dashed=1;" vertex="1" parent="1">
          <mxGeometry x="440" y="160" width="120" height="60" as="geometry" />
        </mxCell>
        <mxCell id="sZw8WR6yCNCQQHxr075C-8" style="edgeStyle=orthogonalEdgeStyle;rounded=0;orthogonalLoop=1;jettySize=auto;html=1;exitX=0.5;exitY=0;exitDx=0;exitDy=0;entryX=0.5;entryY=1;entryDx=0;entryDy=0;" edge="1" parent="1" source="sZw8WR6yCNCQQHxr075C-4" target="sZw8WR6yCNCQQHxr075C-2">
          <mxGeometry relative="1" as="geometry" />
        </mxCell>
        <mxCell id="sZw8WR6yCNCQQHxr075C-4" value="资产" style="rounded=1;whiteSpace=wrap;html=1;" vertex="1" parent="1">
          <mxGeometry x="440" y="250" width="120" height="60" as="geometry" />
        </mxCell>
        <mxCell id="sZw8WR6yCNCQQHxr075C-7" style="edgeStyle=orthogonalEdgeStyle;rounded=0;orthogonalLoop=1;jettySize=auto;html=1;exitX=0.5;exitY=1;exitDx=0;exitDy=0;entryX=0.5;entryY=0;entryDx=0;entryDy=0;" edge="1" parent="1" source="sZw8WR6yCNCQQHxr075C-5" target="sZw8WR6yCNCQQHxr075C-2">
          <mxGeometry relative="1" as="geometry" />
        </mxCell>
        <mxCell id="sZw8WR6yCNCQQHxr075C-5" value="资源" style="rounded=1;whiteSpace=wrap;html=1;" vertex="1" parent="1">
          <mxGeometry x="440" y="70" width="120" height="60" as="geometry" />
        </mxCell>
        <mxCell id="sZw8WR6yCNCQQHxr075C-12" style="edgeStyle=orthogonalEdgeStyle;rounded=0;orthogonalLoop=1;jettySize=auto;html=1;exitX=1;exitY=0.5;exitDx=0;exitDy=0;entryX=1;entryY=0.5;entryDx=0;entryDy=0;" edge="1" parent="1" source="sZw8WR6yCNCQQHxr075C-9" target="sZw8WR6yCNCQQHxr075C-11">
          <mxGeometry relative="1" as="geometry" />
        </mxCell>
        <mxCell id="sZw8WR6yCNCQQHxr075C-9" value="主题&lt;br&gt;（需要填写其他影响选项）" style="whiteSpace=wrap;html=1;rounded=1;" vertex="1" parent="1">
          <mxGeometry x="640" y="160" width="120" height="60" as="geometry" />
        </mxCell>
        <mxCell id="sZw8WR6yCNCQQHxr075C-14" style="edgeStyle=orthogonalEdgeStyle;rounded=0;orthogonalLoop=1;jettySize=auto;html=1;exitX=0;exitY=0.5;exitDx=0;exitDy=0;entryX=1;entryY=0.5;entryDx=0;entryDy=0;" edge="1" parent="1" source="sZw8WR6yCNCQQHxr075C-11" target="sZw8WR6yCNCQQHxr075C-13">
          <mxGeometry relative="1" as="geometry" />
        </mxCell>
        <mxCell id="sZw8WR6yCNCQQHxr075C-15" value="选择资源" style="edgeLabel;html=1;align=center;verticalAlign=middle;resizable=0;points=[];" vertex="1" connectable="0" parent="sZw8WR6yCNCQQHxr075C-14">
          <mxGeometry x="0.025" y="-5" relative="1" as="geometry">
            <mxPoint as="offset" />
          </mxGeometry>
        </mxCell>
        <mxCell id="sZw8WR6yCNCQQHxr075C-11" value="生成新的媒体资源" style="rounded=1;whiteSpace=wrap;html=1;" vertex="1" parent="1">
          <mxGeometry x="640" y="340" width="120" height="60" as="geometry" />
        </mxCell>
        <mxCell id="sZw8WR6yCNCQQHxr075C-18" value="" style="edgeStyle=orthogonalEdgeStyle;rounded=0;orthogonalLoop=1;jettySize=auto;html=1;" edge="1" parent="1" source="sZw8WR6yCNCQQHxr075C-13" target="sZw8WR6yCNCQQHxr075C-17">
          <mxGeometry relative="1" as="geometry" />
        </mxCell>
        <mxCell id="sZw8WR6yCNCQQHxr075C-19" value="选择社交平台" style="edgeLabel;html=1;align=center;verticalAlign=middle;resizable=0;points=[];" vertex="1" connectable="0" parent="sZw8WR6yCNCQQHxr075C-18">
          <mxGeometry x="-0.1" y="-1" relative="1" as="geometry">
            <mxPoint as="offset" />
          </mxGeometry>
        </mxCell>
        <mxCell id="sZw8WR6yCNCQQHxr075C-13" value="生成文案" style="rounded=1;whiteSpace=wrap;html=1;" vertex="1" parent="1">
          <mxGeometry x="440" y="340" width="120" height="60" as="geometry" />
        </mxCell>
        <mxCell id="sZw8WR6yCNCQQHxr075C-17" value="不同社交平台的作品" style="rounded=1;whiteSpace=wrap;html=1;" vertex="1" parent="1">
          <mxGeometry x="240" y="340" width="120" height="60" as="geometry" />
        </mxCell>
      </root>
    </mxGraphModel>
  </diagram>
</mxfile>
